HIERARCHY
ROOT Hips
{
	OFFSET -0.001795 -0.223333 0.028219
	CHANNELS 6 Xposition Yposition Zposition Zrotation Yrotation Xrotation 
	JOINT LeftUpLeg
	{
		OFFSET 0.069520 -0.091406 -0.006815
		CHANNELS 3 Zrotation Yrotation Xrotation
		JOINT LeftLeg
		{
			OFFSET 0.034277 -0.375199 -0.004496
			CHANNELS 3 Zrotation Yrotation Xrotation
			JOINT LeftFoot
			{
				OFFSET -0.013596 -0.397961 -0.043693
				CHANNELS 3 Zrotation Yrotation Xrotation
				JOINT LeftToe
				{
					OFFSET 0.026358 -0.055791 0.119288
					CHANNELS 3 Zrotation Yrotation Xrotation
					End Site
					{
						OFFSET 0.000000 0.000000 0.000000
					}
				}
			}
		}
	}
	JOINT RightUpLeg
	{
		OFFSET -0.067670 -0.090522 -0.004320
		CHANNELS 3 Zrotation Yrotation Xrotation
		JOINT RightLeg
		{
			OFFSET -0.038290 -0.382569 -0.008850
			CHANNELS 3 Zrotation Yrotation Xrotation
			JOINT RightFoot
			{
				OFFSET 0.015774 -0.398415 -0.042312
				CHANNELS 3 Zrotation Yrotation Xrotation
				JOINT RightToe
				{
					OFFSET -0.025372 -0.048144 0.123348
					CHANNELS 3 Zrotation Yrotation Xrotation
					End Site
					{
						OFFSET 0.000000 0.000000 0.000000
					}
				}
			}
		}
	}
	JOINT Spine
	{
		OFFSET -0.002533 0.108963 -0.026696
		CHANNELS 3 Zrotation Yrotation Xrotation
		JOINT Spine1
		{
			OFFSET 0.005487 0.135180 0.001092
			CHANNELS 3 Zrotation Yrotation Xrotation
			JOINT Spine2
			{
				OFFSET 0.001457 0.052922 0.025425
				CHANNELS 3 Zrotation Yrotation Xrotation
				JOINT Neck
				{
					OFFSET -0.002778 0.213870 -0.042857
					CHANNELS 3 Zrotation Yrotation Xrotation
					JOINT Head
					{
						OFFSET 0.005152 0.064970 0.051349
						CHANNELS 3 Zrotation Yrotation Xrotation
						End Site
						{
							OFFSET 0.000000 0.000000 0.000000
						}
					}
				}
				JOINT LeftShoulder
				{
					OFFSET 0.078845 0.121749 -0.034090
					CHANNELS 3 Zrotation Yrotation Xrotation
					JOINT LeftArm
					{
						OFFSET 0.090977 0.030469 -0.008868
						CHANNELS 3 Zrotation Yrotation Xrotation
						JOINT LeftForeArm
						{
							OFFSET 0.259612 -0.012772 -0.027456
							CHANNELS 3 Zrotation Yrotation Xrotation
							JOINT LeftHand
							{
								OFFSET 0.249234 0.008986 -0.001171
								CHANNELS 3 Zrotation Yrotation Xrotation
								End Site
								{
									OFFSET 0.000000 0.000000 0.000000
								}
							}
						}
					}
				}
				JOINT RightShoulder
				{
					OFFSET -0.081759 0.118833 -0.038615
					CHANNELS 3 Zrotation Yrotation Xrotation
					JOINT RightArm
					{
						OFFSET -0.096012 0.032551 -0.009143
						CHANNELS 3 Zrotation Yrotation Xrotation
						JOINT RightForeArm
						{
							OFFSET -0.253742 -0.013329 -0.021401
							CHANNELS 3 Zrotation Yrotation Xrotation
							JOINT RightHand
							{
								OFFSET -0.255298 0.007772 -0.005559
								CHANNELS 3 Zrotation Yrotation Xrotation
								End Site
								{
									OFFSET 0.000000 0.000000 0.000000
								}
							}
						}
					}
				}
			}
		}
	}
}
MOTION
Frames: 15
Frame Time: 0.050000
0.000000 0.944064 0.000000 -0.310005 4.464354 8.805027 4.163605 -0.428975 -4.690256 1.652589 -0.174314 0.232542 0.917291 3.860719 4.320336 0.000000 0.000000 0.000000 -1.104498 1.048209 -11.379240 -2.455176 0.545134 4.814917 0.135961 -0.957192 3.066951 0.000000 0.000000 0.000000 2.466976 0.164551 -4.464907 -0.027641 0.145249 -3.571742 -2.794918 -0.157961 6.049792 3.973222 -1.545687 -11.604722 0.000000 0.000000 0.000000 -4.807493 0.029071 -0.602847 -34.782306 -10.524131 -1.314144 8.191712 -10.913701 -0.399277 0.000000 0.000000 0.000000 3.359833 -3.453535 -1.502215 39.594933 7.786913 -1.480974 -8.820495 12.134508 -0.270935 0.000000 0.000000 0.000000 
0.000173 0.943365 0.000508 -0.810295 3.461528 9.294281 4.564295 -0.387233 -3.863592 1.884725 -0.100844 -1.721614 1.399078 4.715752 4.295890 0.000000 0.000000 0.000000 -1.283533 1.077423 -11.734636 -2.136756 0.450789 3.953984 0.851246 0.324588 3.915161 0.000000 0.000000 0.000000 3.074088 0.166312 -4.538822 -0.677987 0.421936 -3.826472 -2.489044 0.670200 5.331414 3.312747 -0.918687 -12.938880 0.000000 0.000000 0.000000 -3.543909 0.102946 -0.488402 -33.197752 -10.859556 -1.146147 7.282546 -10.568974 -0.310755 0.000000 0.000000 0.000000 1.997558 -5.475204 -2.134784 38.240642 6.904605 -1.632473 -8.204566 12.096647 -0.217125 0.000000 0.000000 0.000000 
0.000719 0.942848 0.001199 -0.918293 3.211887 9.118203 4.700531 -0.342362 -3.007059 2.251647 -0.109838 -2.160755 1.375137 4.579208 4.093694 0.000000 0.000000 0.000000 -1.460270 1.092785 -12.047355 -1.633005 0.422046 4.809294 1.025041 1.170243 2.949815 0.000000 0.000000 0.000000 3.405599 0.127811 -3.930037 -0.631322 0.466012 -6.293651 -3.214640 1.084724 7.152589 4.111513 -1.497177 -12.353844 0.000000 0.000000 0.000000 -2.338118 0.449562 -0.465642 -32.458414 -11.555423 -1.086423 8.591904 -9.779881 -0.403639 0.000000 0.000000 0.000000 2.368774 -5.507199 -2.176842 35.628728 5.985726 -1.953288 -8.224893 10.447115 -0.151514 0.000000 0.000000 0.000000 
0.001751 0.942372 0.002033 -1.057091 2.974491 9.416172 4.939476 -0.354577 -3.122838 2.301307 -0.139451 -1.697804 1.441339 4.375822 3.249077 0.000000 0.000000 0.000000 -1.712243 1.132174 -12.692185 -1.518208 0.434261 5.408627 1.386251 2.171771 2.678125 0.000000 0.000000 0.000000 3.271988 0.162193 -4.470710 -0.864382 0.541178 -5.679675 -2.694446 0.241697 6.154314 2.992091 -0.932333 -11.615769 0.000000 0.000000 0.000000 -1.441449 1.313142 -0.630696 -32.199098 -11.710015 -1.001432 9.642648 -9.217509 -0.439244 0.000000 0.000000 0.000000 0.441669 -6.127715 -2.200997 34.434937 5.893953 -1.818589 -8.091458 9.718461 -0.145300 0.000000 0.000000 0.000000 
0.003281 0.942631 0.003195 -1.122570 2.897811 9.157308 4.881957 -0.309361 -2.268209 2.325637 -0.101971 -2.438663 1.153551 4.062195 3.899215 0.000000 0.000000 0.000000 -1.867680 1.116406 -12.634951 -1.738553 0.493858 5.904887 1.359229 2.059285 2.761599 0.000000 0.000000 0.000000 3.075199 0.159926 -4.376117 -0.316305 0.327422 -6.012656 -3.016633 0.119609 5.768268 3.231286 -1.154722 -11.083138 0.000000 0.000000 0.000000 -1.332216 1.544113 -0.696199 -30.269957 -12.308130 -0.820788 9.369412 -8.381650 -0.376957 0.000000 0.000000 0.000000 -0.334030 -6.381024 -2.194455 32.781845 5.418345 -1.835791 -7.412609 8.974091 -0.088641 0.000000 0.000000 0.000000 
0.005563 0.942120 0.004476 -1.239091 2.856405 9.254578 4.518180 -0.289920 -2.030523 3.185071 -0.178582 -2.315950 1.206573 4.068388 3.653211 0.000000 0.000000 0.000000 -2.135126 1.118748 -12.893541 -1.880696 0.531063 6.187712 1.488699 2.538423 2.444188 0.000000 0.000000 0.000000 3.013452 0.199180 -4.997180 -0.218462 0.275239 -5.607443 -2.745889 -0.689506 5.472463 2.320339 -0.717213 -10.147496 0.000000 0.000000 0.000000 -0.621351 2.453887 -0.909738 -29.642102 -12.620200 -0.749061 9.727262 -8.483737 -0.386609 0.000000 0.000000 0.000000 -2.309746 -6.349008 -1.908181 32.435972 5.261002 -1.818566 -7.673255 8.567425 -0.106953 0.000000 0.000000 0.000000 
0.008368 0.941869 0.005964 -1.178948 2.562067 9.042204 4.402118 -0.254431 -1.484860 3.188312 -0.158366 -2.677422 1.298522 4.380900 4.043890 0.000000 0.000000 0.000000 -2.512989 1.086511 -12.798999 -2.020357 0.577269 6.612033 1.313644 1.891260 2.845268 0.000000 0.000000 0.000000 3.085895 0.205015 -5.028067 -0.032432 0.207338 -5.982886 -2.960135 -0.964921 5.400250 2.162543 -0.678714 -9.762524 0.000000 0.000000 0.000000 -0.313112 2.708867 -0.956746 -28.707289 -12.914794 -0.688521 9.913831 -8.478743 -0.390283 0.000000 0.000000 0.000000 -2.958105 -6.690911 -1.913108 31.340350 5.099824 -1.798832 -7.555079 8.712000 -0.114320 0.000000 0.000000 0.000000 
0.011594 0.941399 0.007422 -1.287273 2.408170 8.847726 4.079581 -0.227422 -1.213523 3.801547 -0.216549 -2.548739 1.122864 4.089056 4.178067 0.000000 0.000000 0.000000 -2.721509 1.050450 -12.490221 -1.998154 0.582761 6.769607 1.201903 1.686958 2.697649 0.000000 0.000000 0.000000 3.048951 0.215299 -5.139773 0.232379 0.100050 -6.040239 -2.917065 -0.992816 5.123737 1.891202 -0.521564 -9.544277 0.000000 0.000000 0.000000 -0.034892 3.029004 -1.029688 -28.007372 -13.517713 -0.555785 10.170444 -8.662444 -0.416333 0.000000 0.000000 0.000000 -3.513758 -6.924768 -1.900661 30.947597 4.976876 -1.790631 -7.810766 8.359583 -0.117447 0.000000 0.000000 0.000000 
0.014622 0.940965 0.008829 -1.453090 2.075059 8.591054 3.927159 -0.185218 -0.618269 4.113919 -0.245740 -2.529038 1.230965 4.215915 4.003222 0.000000 0.000000 0.000000 -2.878408 1.007865 -12.002012 -1.787902 0.543289 6.648524 1.101814 1.438651 2.675765 0.000000 0.000000 0.000000 3.116923 0.225371 -5.219668 0.465975 0.006802 -6.200138 -2.808261 -1.227450 5.081892 1.582922 -0.392898 -9.016772 0.000000 0.000000 0.000000 0.036794 3.300776 -1.114687 -27.569450 -13.894780 -0.491911 10.597701 -9.039506 -0.456258 0.000000 0.000000 0.000000 -3.822966 -6.828775 -1.800641 30.517571 4.992969 -1.764091 -7.691077 8.637654 -0.130937 0.000000 0.000000 0.000000 
0.016887 0.940231 0.009903 -1.574270 2.035562 8.408394 4.071087 -0.171287 -0.306703 4.034696 -0.241966 -2.498084 1.214480 4.197542 4.045886 0.000000 0.000000 0.000000 -3.112216 0.965154 -11.615121 -1.741171 0.536089 6.652790 1.076976 1.460321 2.509206 0.000000 0.000000 0.000000 3.009192 0.231620 -5.290368 0.828588 -0.149482 -5.958849 -2.818572 -1.029733 4.794620 1.622410 -0.391465 -9.148649 0.000000 0.000000 0.000000 0.565720 3.604335 -1.145776 -27.611816 -14.846415 -0.285292 10.870337 -9.588329 -0.515727 0.000000 0.000000 0.000000 -3.973150 -7.132711 -1.879371 30.580733 4.844167 -1.781969 -7.483884 8.811307 -0.122395 0.000000 0.000000 0.000000 
0.018406 0.939682 0.010328 -1.819336 1.811696 8.198553 4.477678 -0.170896 -0.084330 4.160369 -0.280267 -2.124569 1.187459 3.989760 3.656944 0.000000 0.000000 0.000000 -3.050444 0.946039 -11.267456 -1.659808 0.511924 6.418890 1.183036 1.795505 2.341923 0.000000 0.000000 0.000000 3.031856 0.236633 -5.308948 0.971013 -0.210898 -5.957235 -2.725196 -0.964635 4.856246 1.462676 -0.314162 -8.864456 0.000000 0.000000 0.000000 0.809450 3.552896 -1.098468 -27.659044 -15.039168 -0.251225 10.861574 -10.245509 -0.551671 0.000000 0.000000 0.000000 -3.937431 -7.025140 -1.847313 31.123656 5.055166 -1.767082 -7.219233 8.897470 -0.112254 0.000000 0.000000 0.000000 
0.019464 0.939130 0.009900 -2.161496 2.196271 8.343999 5.537085 -0.243133 -0.708195 3.634320 -0.292333 -1.222720 1.067063 3.527088 3.034351 0.000000 0.000000 0.000000 -2.935050 0.970044 -11.540877 -1.621024 0.517570 6.689488 1.177734 1.854221 2.234216 0.000000 0.000000 0.000000 3.005192 0.229056 -5.251042 1.301046 -0.345671 -5.825019 -2.682341 -1.024646 4.599734 1.807265 -0.528068 -8.967313 0.000000 0.000000 0.000000 0.872954 3.846037 -1.183002 -28.292066 -15.781098 -0.069304 10.868287 -11.054525 -0.605695 0.000000 0.000000 0.000000 -3.836266 -7.219421 -1.928539 32.296103 4.896600 -1.840640 -6.583992 9.355639 -0.086585 0.000000 0.000000 0.000000 
0.020651 0.938803 0.008627 -2.388202 2.017049 8.734913 5.958923 -0.302287 -1.811303 3.422993 -0.354661 0.039643 1.027865 3.277947 2.611055 0.000000 0.000000 0.000000 -3.051655 1.000314 -11.996607 -1.565373 0.508730 6.686527 1.282455 2.130126 2.189640 0.000000 0.000000 0.000000 2.984017 0.226450 -5.261123 1.338297 -0.364771 -5.786737 -2.490827 -0.471187 4.473286 2.132278 -0.670329 -9.455962 0.000000 0.000000 0.000000 0.821537 3.703558 -1.136481 -28.835421 -16.072708 0.019651 10.869900 -11.597000 -0.653051 0.000000 0.000000 0.000000 -3.137456 -7.242147 -2.058179 33.074692 4.934192 -1.861783 -5.818762 9.672160 -0.040128 0.000000 0.000000 0.000000 
0.022257 0.938302 0.006859 -2.673349 1.968497 8.901043 6.554809 -0.348038 -2.708768 3.040520 -0.403352 1.475031 1.286347 3.410251 1.639391 0.000000 0.000000 0.000000 -2.990667 1.039118 -12.459652 -1.586761 0.515819 6.753328 1.279502 1.958728 2.500859 0.000000 0.000000 0.000000 3.027150 0.189777 -4.714378 1.531125 -0.430841 -6.077256 -2.167126 -0.034814 4.457528 2.524698 -0.882097 -9.724716 0.000000 0.000000 0.000000 0.481660 3.958263 -1.264530 -30.112468 -16.193630 0.089523 10.710969 -11.934176 -0.668841 0.000000 0.000000 0.000000 -2.679408 -7.119394 -2.101270 34.360243 4.709385 -1.975817 -5.395054 10.416783 -0.017525 0.000000 0.000000 0.000000 
0.023890 0.937886 0.005367 -2.680896 1.566064 9.269333 6.756460 -0.375084 -3.464767 2.700639 -0.404574 2.155299 1.462283 3.755937 1.620402 0.000000 0.000000 0.000000 -3.417374 1.052385 -12.963372 -1.427862 0.491931 6.769253 1.146502 1.380130 2.964628 0.000000 0.000000 0.000000 2.997175 0.184449 -4.655996 1.581684 -0.469910 -5.791257 -2.115607 0.451853 4.223219 2.945148 -1.041236 -10.609948 0.000000 0.000000 0.000000 -0.318792 3.964301 -1.382271 -31.824342 -15.908373 0.098249 10.714254 -11.893372 -0.675164 0.000000 0.000000 0.000000 -1.501798 -6.812307 -2.168493 35.530396 4.627874 -2.041646 -5.049854 11.221278 0.003321 0.000000 0.000000 0.000000 
